<svg width="147" height="67" viewBox="0 0 147 67" fill="none" xmlns="http://www.w3.org/2000/svg">
<path d="M66.3049 50.7076C63.7572 50.7076 61.7818 50.0522 60.3787 48.7414C58.9941 47.4307 58.2557 45.5845 58.1634 43.203C58.1449 42.7045 58.1357 41.8922 58.1357 40.766C58.1357 39.6214 58.1449 38.7907 58.1634 38.2737C58.2557 35.9107 59.0034 34.0737 60.4064 32.763C61.828 31.4337 63.7941 30.7691 66.3049 30.7691C67.948 30.7691 69.3787 31.0553 70.5972 31.6276C71.8157 32.1814 72.7572 32.9476 73.4218 33.926C74.0864 34.886 74.4372 35.9753 74.4741 37.1937V37.2491C74.4741 37.3968 74.4095 37.526 74.2803 37.6368C74.1695 37.7291 74.0403 37.7753 73.8926 37.7753H71.2618C71.0403 37.7753 70.8741 37.7291 70.7634 37.6368C70.6526 37.5445 70.5603 37.3691 70.4864 37.1107C70.191 35.9476 69.7018 35.1353 69.0187 34.6737C68.3357 34.1937 67.4218 33.9537 66.2772 33.9537C63.6187 33.9537 62.2341 35.4399 62.1234 38.4122C62.1049 38.9107 62.0957 39.6768 62.0957 40.7107C62.0957 41.7445 62.1049 42.5291 62.1234 43.0645C62.2341 46.0368 63.6187 47.523 66.2772 47.523C67.4218 47.523 68.3357 47.283 69.0187 46.803C69.7203 46.323 70.2095 45.5107 70.4864 44.366C70.5418 44.1076 70.6249 43.9322 70.7357 43.8399C70.8649 43.7476 71.0403 43.7014 71.2618 43.7014H73.8926C74.0587 43.7014 74.1972 43.7568 74.308 43.8676C74.4372 43.9784 74.4926 44.1168 74.4741 44.283C74.4372 45.5014 74.0864 46.5999 73.4218 47.5784C72.7572 48.5384 71.8157 49.3045 70.5972 49.8768C69.3787 50.4307 67.948 50.7076 66.3049 50.7076Z" fill="#FD6637"/>
<path d="M84.4875 50.7076C82.8444 50.7076 81.4321 50.4584 80.2506 49.9599C79.069 49.4614 78.1736 48.806 77.5644 47.9937C76.9552 47.1814 76.6321 46.3045 76.5952 45.363C76.5952 45.1968 76.6506 45.0584 76.7613 44.9476C76.8721 44.8368 77.0106 44.7814 77.1767 44.7814H79.6413C79.8629 44.7814 80.029 44.8276 80.1398 44.9199C80.269 44.9937 80.389 45.123 80.4998 45.3076C80.6844 45.9353 81.109 46.4614 81.7736 46.886C82.4383 47.3107 83.3429 47.523 84.4875 47.523C85.7983 47.523 86.7859 47.3107 87.4506 46.886C88.1152 46.443 88.4475 45.8337 88.4475 45.0584C88.4475 44.5414 88.2721 44.1168 87.9213 43.7845C87.589 43.4522 87.0813 43.166 86.3983 42.926C85.7336 42.686 84.7367 42.3907 83.4075 42.0399C81.229 41.523 79.6321 40.8399 78.6167 39.9907C77.6198 39.123 77.1213 37.8953 77.1213 36.3076C77.1213 35.2368 77.4075 34.286 77.9798 33.4553C78.5706 32.6245 79.4106 31.9691 80.4998 31.4891C81.6075 31.0091 82.8906 30.7691 84.349 30.7691C85.8629 30.7691 87.1736 31.0368 88.2813 31.5722C89.389 32.1076 90.229 32.7814 90.8013 33.5937C91.3921 34.3876 91.7059 35.1814 91.7429 35.9753C91.7429 36.1414 91.6875 36.2799 91.5767 36.3907C91.4659 36.5014 91.3275 36.5568 91.1613 36.5568H88.5859C88.1983 36.5568 87.9306 36.3814 87.7829 36.0307C87.6721 35.4399 87.3029 34.9507 86.6752 34.563C86.0475 34.1568 85.2721 33.9537 84.349 33.9537C83.3152 33.9537 82.5029 34.1476 81.9121 34.5353C81.3213 34.923 81.0259 35.486 81.0259 36.2245C81.0259 36.7414 81.1736 37.166 81.469 37.4984C81.7644 37.8307 82.2259 38.126 82.8536 38.3845C83.4998 38.643 84.4229 38.9291 85.6229 39.243C87.2475 39.6122 88.5398 40.0276 89.4998 40.4891C90.4783 40.9507 91.1983 41.5322 91.6598 42.2337C92.1213 42.9353 92.3521 43.8307 92.3521 44.9199C92.3521 46.1014 92.0198 47.1353 91.3552 48.0214C90.709 48.8891 89.7859 49.5537 88.5859 50.0153C87.4044 50.4768 86.0383 50.7076 84.4875 50.7076ZM95.8857 50.4307C95.7011 50.4307 95.5441 50.366 95.4149 50.2368C95.2857 50.1076 95.2211 49.9507 95.2211 49.766V31.4337C95.2211 31.2307 95.2857 31.0737 95.4149 30.963C95.5441 30.8337 95.7011 30.7691 95.8857 30.7691H98.3503C98.5534 30.7691 98.7103 30.8337 98.8211 30.963C98.9503 31.0737 99.0149 31.2307 99.0149 31.4337V37.7476C100.123 36.4184 101.618 35.7537 103.501 35.7537C105.2 35.7537 106.556 36.3168 107.572 37.443C108.587 38.5507 109.095 40.0645 109.095 41.9845V49.766C109.095 49.9507 109.03 50.1076 108.901 50.2368C108.79 50.366 108.633 50.4307 108.43 50.4307H105.938C105.753 50.4307 105.596 50.366 105.467 50.2368C105.338 50.1076 105.273 49.9507 105.273 49.766V42.1507C105.273 41.0614 105.006 40.2214 104.47 39.6307C103.953 39.0214 103.196 38.7168 102.2 38.7168C101.221 38.7168 100.446 39.0214 99.8734 39.6307C99.3011 40.2399 99.0149 41.0799 99.0149 42.1507V49.766C99.0149 49.9507 98.9503 50.1076 98.8211 50.2368C98.7103 50.366 98.5534 50.4307 98.3503 50.4307H95.8857ZM118.978 50.7076C116.818 50.7076 115.148 50.1537 113.966 49.046C112.785 47.9199 112.148 46.3876 112.055 44.4491L112.028 43.2307L112.055 42.0122C112.148 40.0922 112.794 38.5691 113.994 37.443C115.194 36.3168 116.855 35.7537 118.978 35.7537C121.102 35.7537 122.763 36.3168 123.963 37.443C125.163 38.5691 125.809 40.0922 125.902 42.0122C125.92 42.2337 125.929 42.6399 125.929 43.2307C125.929 43.8214 125.92 44.2276 125.902 44.4491C125.809 46.3876 125.172 47.9199 123.991 49.046C122.809 50.1537 121.138 50.7076 118.978 50.7076ZM118.978 47.966C119.957 47.966 120.714 47.6614 121.249 47.0522C121.785 46.4245 122.08 45.5107 122.135 44.3107C122.154 44.126 122.163 43.766 122.163 43.2307C122.163 42.6953 122.154 42.3353 122.135 42.1507C122.08 40.9507 121.785 40.046 121.249 39.4368C120.714 38.8091 119.957 38.4953 118.978 38.4953C118 38.4953 117.243 38.8091 116.708 39.4368C116.172 40.046 115.877 40.9507 115.822 42.1507L115.794 43.2307L115.822 44.3107C115.877 45.5107 116.172 46.4245 116.708 47.0522C117.243 47.6614 118 47.966 118.978 47.966ZM129.69 55.6922C129.505 55.6922 129.348 55.6276 129.219 55.4984C129.09 55.3876 129.025 55.2307 129.025 55.0276V36.6953C129.025 36.4922 129.09 36.3353 129.219 36.2245C129.348 36.0953 129.505 36.0307 129.69 36.0307H131.877C132.081 36.0307 132.237 36.0953 132.348 36.2245C132.477 36.3353 132.542 36.4922 132.542 36.6953V37.803C133.576 36.4368 135.053 35.7537 136.973 35.7537C138.837 35.7537 140.268 36.3445 141.265 37.526C142.262 38.6891 142.797 40.2676 142.871 42.2614C142.89 42.483 142.899 42.806 142.899 43.2307C142.899 43.6737 142.89 44.006 142.871 44.2276C142.797 46.166 142.262 47.7353 141.265 48.9353C140.268 50.1168 138.837 50.7076 136.973 50.7076C135.108 50.7076 133.687 50.0522 132.708 48.7414V55.0276C132.708 55.2307 132.644 55.3876 132.514 55.4984C132.404 55.6276 132.247 55.6922 132.044 55.6922H129.69ZM135.948 47.7445C137.942 47.7445 139.004 46.5168 139.133 44.0614C139.151 43.8768 139.161 43.5999 139.161 43.2307C139.161 42.8614 139.151 42.5845 139.133 42.3999C139.004 39.9445 137.942 38.7168 135.948 38.7168C134.877 38.7168 134.084 39.0584 133.567 39.7414C133.05 40.4245 132.764 41.2645 132.708 42.2614L132.681 43.3137L132.708 44.3937C132.745 45.3168 133.031 46.1107 133.567 46.7753C134.121 47.4214 134.914 47.7445 135.948 47.7445Z" fill="#323232"/>
<path d="M35.8105 50.1476C36.4889 50.1476 37.1395 49.854 37.6192 49.3316C38.0989 48.8091 38.3684 48.1005 38.3684 47.3616V41.7896C38.3684 41.0507 38.0989 40.3421 37.6192 39.8196C37.1395 39.2972 36.4889 39.0036 35.8105 39.0036C35.1321 39.0036 34.4815 39.2972 34.0018 39.8196C33.5221 40.3421 33.2526 41.0507 33.2526 41.7896V47.3616C33.2526 48.1005 33.5221 48.8091 34.0018 49.3316C34.4815 49.854 35.1321 50.1476 35.8105 50.1476ZM25.5789 50.1476C26.2573 50.1476 26.9079 49.854 27.3876 49.3316C27.8673 48.8091 28.1368 48.1005 28.1368 47.3616V41.7896C28.1368 41.0507 27.8673 40.3421 27.3876 39.8196C26.9079 39.2972 26.2573 39.0036 25.5789 39.0036C24.9005 39.0036 24.2499 39.2972 23.7702 39.8196C23.2905 40.3421 23.021 41.0507 23.021 41.7896V47.3616C23.021 48.1005 23.2905 48.8091 23.7702 49.3316C24.2499 49.854 24.9005 50.1476 25.5789 50.1476ZM48.6 16.7158H45.0701L40.6449 7.10415C40.5097 6.75048 40.309 6.43099 40.0553 6.16563C39.8015 5.90028 39.5003 5.69477 39.1704 5.56195C38.8405 5.42913 38.4889 5.37185 38.1377 5.39369C37.7866 5.41553 37.4433 5.51603 37.1294 5.6889C36.8155 5.86176 36.5377 6.10329 36.3134 6.39837C36.0891 6.69346 35.923 7.03577 35.8256 7.40391C35.7283 7.77204 35.7017 8.1581 35.7475 8.53795C35.7933 8.91779 35.9105 9.28327 36.0919 9.61154L39.3404 16.7158H22.049L25.2975 9.61154C25.5458 8.96214 25.5594 8.23449 25.3355 7.57467C25.1115 6.91485 24.6667 6.37171 24.0904 6.0543C23.514 5.73689 22.8487 5.66871 22.2281 5.86344C21.6075 6.05817 21.0775 6.50141 20.7445 7.10415L16.3193 16.7158H12.7894C10.9815 16.7457 9.24131 17.4701 7.87583 18.7611C6.51036 20.0521 5.6073 21.8267 5.32592 23.7721C5.04454 25.7175 5.40293 27.7087 6.33786 29.3944C7.2728 31.0801 8.72423 32.352 10.4362 32.9859L12.329 53.7693C12.5199 55.8381 13.4119 57.7552 14.8308 59.1461C16.2497 60.537 18.0937 61.3019 20.0027 61.2915H41.4379C43.3468 61.3019 45.1908 60.537 46.6097 59.1461C48.0287 57.7552 48.9207 55.8381 49.1116 53.7693L51.0044 32.9859C52.7201 32.3501 54.1738 31.0735 55.108 29.3822C56.0423 27.6909 56.3969 25.694 56.1089 23.7452C55.8209 21.7965 54.9089 20.0216 53.5346 18.735C52.1602 17.4484 50.4122 16.7331 48.6 16.7158ZM43.9702 53.2122C43.9066 53.9017 43.6092 54.5408 43.1362 55.0044C42.6633 55.468 42.0486 55.723 41.4123 55.7195H19.9771C19.3408 55.723 18.7261 55.468 18.2532 55.0044C17.7802 54.5408 17.4828 53.9017 17.4192 53.2122L15.6031 33.4317H45.7863L43.9702 53.2122ZM48.6 27.8597H12.7894C12.111 27.8597 11.4604 27.5662 10.9807 27.0437C10.501 26.5212 10.2315 25.8126 10.2315 25.0737C10.2315 24.3348 10.501 23.6262 10.9807 23.1037C11.4604 22.5813 12.111 22.2878 12.7894 22.2878H48.6C49.2784 22.2878 49.929 22.5813 50.4087 23.1037C50.8884 23.6262 51.1579 24.3348 51.1579 25.0737C51.1579 25.8126 50.8884 26.5212 50.4087 27.0437C49.929 27.5662 49.2784 27.8597 48.6 27.8597Z" fill="#FD6637"/>
</svg>
